<mxfile host="app.diagrams.net" modified="2024-03-01T03:05:39.958Z" agent="Mozilla/5.0 (Windows NT 10.0; Win64; x64) AppleWebKit/537.36 (KHTML, like Gecko) Chrome/121.0.0.0 Safari/537.36" version="24.0.0" etag="ayvWCRQkOnvPNBbfa-bQ" type="github">
  <diagram name="Page-1" id="BalPlbMgdHSa1vw7bANc">
    <mxGraphModel>
      <root>
        <mxCell id="0" />
        <mxCell id="1" parent="0" />
      </root>
    </mxGraphModel>
  </diagram>
</mxfile>
